<svg xmlns="http://www.w3.org/2000/svg" width="1024" height="188" viewBox="0 0 1024 188" role="img" aria-labelledby="title desc">
  <title id="title">Co-financed by program banner</title>
  <desc id="desc">Compete 2030, Portugal 2030, and European Union co-financing banner.</desc>
  <rect width="1024" height="188" fill="#ffffff" />

  <g transform="translate(18,24)">
    <rect x="0" y="0" width="278" height="140" rx="10" fill="#ffffff" stroke="#d4dfec" />
    <text x="20" y="58" fill="#003399" font-size="58" font-weight="700" font-family="Arial, Helvetica, sans-serif">COMPETE</text>
    <text x="218" y="112" fill="#5f6670" font-size="26" font-weight="500" font-family="Arial, Helvetica, sans-serif">2030</text>
  </g>

  <g transform="translate(330,24)">
    <rect x="0" y="0" width="278" height="140" rx="10" fill="#ffffff" stroke="#d4dfec" />
    <path d="M22 30 L42 10 L42 130 L22 110 Z" fill="#14a44d" />
    <path d="M42 10 L64 18 L64 122 L42 130 Z" fill="#0a7f42" />
    <path d="M64 18 L102 10 L102 54 L64 122 Z" fill="#ef2f2f" />
    <path d="M64 122 L102 54 L114 98 L82 130 Z" fill="#1f3fbf" />
    <text x="122" y="48" fill="#122a7a" font-size="32" font-family="Arial, Helvetica, sans-serif">PORTUGAL</text>
    <text x="122" y="112" font-size="80" font-family="Arial, Helvetica, sans-serif">
      <tspan fill="#00a35a">2</tspan>
      <tspan fill="#00a35a">0</tspan>
      <tspan fill="#ce2b37">3</tspan>
      <tspan fill="#ce2b37">0</tspan>
    </text>
  </g>

  <g transform="translate(644,24)">
    <rect x="0" y="0" width="362" height="140" rx="10" fill="#ffffff" stroke="#d4dfec" />
    <rect x="16" y="16" width="126" height="108" fill="#003399" />
    <g fill="#ffcc00" transform="translate(79,70)">
      <circle cx="0" cy="-32" r="3.2" />
      <circle cx="16" cy="-27" r="3.2" />
      <circle cx="27" cy="-16" r="3.2" />
      <circle cx="32" cy="0" r="3.2" />
      <circle cx="27" cy="16" r="3.2" />
      <circle cx="16" cy="27" r="3.2" />
      <circle cx="0" cy="32" r="3.2" />
      <circle cx="-16" cy="27" r="3.2" />
      <circle cx="-27" cy="16" r="3.2" />
      <circle cx="-32" cy="0" r="3.2" />
      <circle cx="-27" cy="-16" r="3.2" />
      <circle cx="-16" cy="-27" r="3.2" />
    </g>
    <text x="162" y="58" fill="#003399" font-size="54" font-weight="700" font-family="Arial, Helvetica, sans-serif">Cofinanciado</text>
    <text x="162" y="112" fill="#003399" font-size="54" font-weight="700" font-family="Arial, Helvetica, sans-serif">pela UE</text>
  </g>
</svg>
