<svg width="228" height="90" viewBox="0 0 228 90" fill="none" xmlns="http://www.w3.org/2000/svg">
<g id="Frame" clip-path="url(#clip0_5679_15620)">
<path id="Vector" d="M227.75 32.3334H183.276V61.8179H227.75V32.3334Z" fill="#004494"/>
<path id="Vector_2" d="M204.566 38.758L205.504 38.0769L206.444 38.758L206.085 37.6564L207.039 36.9753H205.864L205.504 35.8598L205.145 36.977L203.972 36.9753L204.923 37.6564L204.566 38.758Z" fill="#FFF100"/>
<path id="Vector_3" d="M199.709 40.0552L200.647 39.3741L201.585 40.0552L201.228 38.9536L202.182 38.2725H201.006L200.647 37.157L200.286 38.2742L199.113 38.2725L200.065 38.9536L199.709 40.0552Z" fill="#FFF100"/>
<path id="Vector_4" d="M197.094 40.6982L196.734 41.8154L195.561 41.8145L196.513 42.4956L196.157 43.5963L197.094 42.9153L198.032 43.5963L197.675 42.4956L198.629 41.8145H197.453L197.094 40.6982Z" fill="#FFF100"/>
<path id="Vector_5" d="M195.791 47.7389L196.728 48.42L196.372 47.3183L197.325 46.6373H196.15L195.791 45.5218L195.432 46.6399L194.257 46.6373L195.21 47.3183L194.853 48.42L195.791 47.7389Z" fill="#FFF100"/>
<path id="Vector_6" d="M197.453 51.4757L197.095 50.3593L196.735 51.4765L195.561 51.4757L196.513 52.1567L196.156 53.2584L197.095 52.5756L198.032 53.2584L197.676 52.1567L198.628 51.4757H197.453Z" fill="#FFF100"/>
<path id="Vector_7" d="M201.014 55.016L200.654 53.9014L200.295 55.0168L199.12 55.016L200.073 55.697L199.716 56.7987L200.654 56.1176L201.592 56.7987L201.236 55.697L202.189 55.016H201.014Z" fill="#FFF100"/>
<path id="Vector_8" d="M205.864 56.2993L205.505 55.183L205.146 56.3002L203.972 56.2993L204.924 56.9804L204.568 58.082L205.506 57.401L206.444 58.082L206.086 56.9804L207.04 56.2993H205.864Z" fill="#FFF100"/>
<path id="Vector_9" d="M210.716 55.016L210.357 53.9014L209.997 55.0168L208.823 55.016L209.775 55.697L209.418 56.7987L210.357 56.1176L211.296 56.7987L210.938 55.697L211.89 55.016H210.716Z" fill="#FFF100"/>
<path id="Vector_10" d="M214.276 51.4757L213.916 50.3593L213.556 51.4765L212.382 51.4757L213.336 52.1567L212.978 53.2584L213.916 52.5756L214.855 53.2584L214.496 52.1567L215.45 51.4757H214.276Z" fill="#FFF100"/>
<path id="Vector_11" d="M216.741 46.6243H215.565L215.205 45.5089L214.846 46.6252L213.671 46.6243L214.625 47.3054L214.268 48.407L215.205 47.7242L216.143 48.407L215.787 47.3054L216.741 46.6243Z" fill="#FFF100"/>
<path id="Vector_12" d="M212.978 43.5825L213.915 42.9014L214.855 43.5825L214.497 42.4809L215.45 41.8015H214.276L213.915 40.6852L213.555 41.8024L212.383 41.8015L213.335 42.4809L212.978 43.5825Z" fill="#FFF100"/>
<path id="Vector_13" d="M210.369 37.1579L210.01 38.2751L208.836 38.2725L209.787 38.9553L209.431 40.056L210.37 39.3741L211.307 40.056L210.951 38.9553L211.905 38.2725H210.728L210.369 37.1579Z" fill="#FFF100"/>
<g id="Group">
<path id="Vector_14" d="M33.6233 67.7761C33.6233 71.6201 30.4896 74.7372 26.6232 74.7372C22.7576 74.7372 19.623 71.6201 19.623 67.7761C19.623 63.932 22.7576 60.8149 26.6232 60.8149C30.4905 60.8149 33.6233 63.9312 33.6233 67.7761Z" fill="#FFF100"/>
<path id="Vector_15" d="M4.40141 46.3015C4.40141 22.6082 23.7161 3.40009 47.543 3.40009C59.0701 3.40009 69.5337 7.90184 77.2709 15.2273C69.2457 6.09059 57.4532 0.310684 44.2953 0.310684C20.1177 0.310684 0.517578 19.8017 0.517578 43.8456C0.517578 61.1671 10.6923 76.1244 25.4209 83.134C12.8322 75.6407 4.40141 61.9529 4.40141 46.3015Z" fill="#FFF100"/>
<path id="Vector_16" d="M45.3687 86.329C25.1168 86.329 8.69816 70.0027 8.69816 49.8626C8.69816 29.7234 25.1168 13.397 45.3687 13.397C57.3988 13.397 68.0756 19.1579 74.7625 28.0566H86.5854C79.6923 13.481 64.8001 3.38712 47.5313 3.38712C23.7053 3.38712 4.38965 22.5952 4.38965 46.2886C4.38965 69.9819 23.7053 89.19 47.5313 89.19C60.8336 89.19 72.7244 83.1981 80.6356 73.7844H73.0237C66.3047 81.4664 56.4119 86.329 45.3687 86.329Z" fill="#004494"/>
<path id="Vector_17" d="M83.2566 51.9369C83.2566 54.8922 81.7041 56.6126 78.332 56.6126H74.8371C71.3762 56.6126 69.8681 54.8922 69.8681 51.9369V32.0417H64.5449V52.3341C64.5449 58.5978 67.8283 61.8179 74.2158 61.8179H78.687C85.0754 61.8179 88.4023 58.5978 88.4023 52.3341V32.0417H83.2566V51.9369Z" fill="#004494"/>
<path id="Vector_18" d="M107.528 44.3051H103.565C100.061 44.3051 99.129 42.5847 99.129 40.776C99.129 38.7026 100.327 37.247 103.033 37.247H115.335V32.0417H103.21C96.5566 32.0417 93.8945 35.659 93.8945 40.5995C93.8945 44.7465 95.7577 49.2015 103.742 49.2015H107.661C111.343 49.2015 112.363 50.966 112.363 52.907C112.363 55.0687 111.077 56.6126 108.238 56.6126H94.4271V61.8179H108.06C114.891 61.8179 117.598 58.1123 117.598 53.0836C117.599 48.8042 115.691 44.3051 107.528 44.3051Z" fill="#004494"/>
<path id="Vector_19" d="M135.453 32.0417H122.541V37.247H135.675C138.514 37.247 139.8 39.0557 139.8 41.2174C139.8 43.29 138.603 45.3202 135.63 45.3202H127.287C124.005 45.3202 122.585 46.6875 122.585 50.04V61.8179H127.82V51.0542C127.82 50.5255 128.086 50.3048 128.574 50.3048H135.453C142.462 50.3048 145.08 45.4517 145.08 40.9526C145.08 36.1887 142.195 32.0417 135.453 32.0417Z" fill="#004494"/>
<path id="Vector_20" d="M172.608 33.6522C172.473 33.3303 172.284 33.0482 172.041 32.8067C171.798 32.5653 171.515 32.3775 171.191 32.2434C170.867 32.1092 170.523 32.0417 170.159 32.0417H162.563C160.471 32.0417 158.542 32.3974 156.775 33.1088C155.007 33.8201 153.476 34.8127 152.178 36.0874C150.883 37.3621 149.871 38.8852 149.143 40.6558C148.414 42.4272 148.05 44.3665 148.05 46.4729V61.8187H153.314V53.8191H159.352C160.806 53.8191 161.983 52.6474 161.983 51.2022C161.983 49.757 160.806 48.5862 159.352 48.5862H153.314V46.4729C153.314 45.0104 153.516 43.766 153.927 42.7396C154.339 41.7124 154.865 40.8574 155.5 40.1729C156.133 39.4892 156.829 38.9518 157.584 38.5633C158.339 38.1739 159.055 37.8857 159.736 37.6979C160.418 37.5101 161.018 37.3924 161.537 37.3457C162.057 37.2981 162.401 37.2747 162.563 37.2747H167.548V61.8187H172.81V34.6786C172.81 34.316 172.743 33.9741 172.608 33.6522Z" fill="#004494"/>
<path id="Vector_21" d="M46.6745 37.247H59.2319V32.0417H46.6745C39.6213 32.0417 36.6494 35.3942 36.6494 40.159H42.2206C42.533 38.3547 43.928 37.247 46.6745 37.247Z" fill="#004494"/>
<path id="Vector_22" d="M42.2606 54.3202H36.585C36.8365 58.6385 39.7648 61.8179 46.5413 61.8179H59.2753V56.6126H46.5413C44.1864 56.6126 42.7862 55.7706 42.2606 54.3202Z" fill="#004494"/>
<path id="Vector_23" d="M42.5137 44.3717V49.4888H51.229C52.6501 49.4888 53.8023 48.343 53.8023 46.9298C53.8023 45.5175 52.6501 44.3717 51.229 44.3717H42.5137Z" fill="#004494"/>
</g>
<path id="Vector_24" d="M36.7188 70.669V64.6901H40.5217V65.2664H37.4097V67.3451H40.352V67.9214H37.4097V70.0918H40.5217V70.669H36.7188Z" fill="#004494"/>
<g id="Group_2">
<path id="Vector_25" d="M45.0765 66.5394V70.669H44.4029V69.9655C44.2715 70.2138 44.0888 70.4034 43.8529 70.534C43.6162 70.6639 43.3508 70.7287 43.0549 70.7287C42.5606 70.7287 42.1882 70.592 41.9384 70.3177C41.6878 70.0434 41.5625 69.6375 41.5625 69.1001V66.5394H42.2535V69.0836C42.2535 69.4514 42.3274 69.7206 42.4754 69.8936C42.6233 70.0659 42.8565 70.1524 43.175 70.1524C43.5388 70.1524 43.8312 70.0347 44.0531 69.8002C44.275 69.5657 44.3855 69.2559 44.3855 68.8716V66.5394H45.0765Z" fill="#004494"/>
<path id="Vector_26" d="M48.7173 67.031L48.2647 67.0734C47.8392 67.1132 47.5303 67.2456 47.3397 67.4723C47.1491 67.6982 47.0542 67.9777 47.0542 68.3117V70.669H46.3633V66.5394H47.0368V67.2603C47.2701 66.7791 47.7278 66.5109 48.4101 66.4537L48.6572 66.4373L48.7173 67.031Z" fill="#004494"/>
<path id="Vector_27" d="M51.9546 69.7578C52.1731 69.4887 52.2827 69.0975 52.2827 68.5835C52.2827 68.0798 52.1722 67.6912 51.9503 67.4169C51.7284 67.1426 51.416 67.0059 51.0122 67.0059C50.6084 67.0059 50.296 67.1426 50.0741 67.4169C49.8522 67.6912 49.7417 68.0798 49.7417 68.5835C49.7417 69.0923 49.8504 69.4817 50.0697 69.7535C50.289 70.0252 50.6032 70.1602 51.0122 70.1602C51.4212 70.1602 51.7353 70.0252 51.9546 69.7578ZM49.9757 70.4657C49.6773 70.2909 49.4475 70.0399 49.2848 69.7154C49.1229 69.39 49.042 69.0127 49.042 68.5835C49.042 68.1534 49.1229 67.7761 49.2848 67.4507C49.4475 67.1253 49.6773 66.8752 49.9757 66.7004C50.2742 66.5256 50.6197 66.4373 51.0122 66.4373C51.4047 66.4373 51.751 66.5256 52.0521 66.7004C52.3541 66.8752 52.5856 67.1253 52.7474 67.4507C52.9093 67.7761 52.9902 68.1534 52.9902 68.5835C52.9902 69.0127 52.9093 69.39 52.7474 69.7154C52.5856 70.0399 52.3541 70.2909 52.0521 70.4657C51.751 70.6413 51.4047 70.7287 51.0122 70.7287C50.6197 70.7287 50.2742 70.6405 49.9757 70.4657Z" fill="#004494"/>
<path id="Vector_28" d="M56.9133 69.7526C57.1352 69.4817 57.2457 69.0966 57.2457 68.599C57.2457 68.1023 57.1352 67.7129 56.9133 67.4334C56.6913 67.1538 56.3789 67.0136 55.9752 67.0136C55.5714 67.0136 55.2598 67.1495 55.0414 67.4212C54.8221 67.6921 54.7125 68.0798 54.7125 68.5826C54.7125 69.0854 54.8221 69.4739 55.0414 69.7491C55.2598 70.0226 55.5714 70.1602 55.9752 70.1602C56.3789 70.1602 56.6922 70.0243 56.9133 69.7526ZM57.0751 66.7082C57.3536 66.889 57.5694 67.1426 57.7234 67.4671C57.8766 67.7925 57.9532 68.1698 57.9532 68.599C57.9532 69.0291 57.8766 69.4038 57.7234 69.7232C57.5694 70.0425 57.3553 70.29 57.0795 70.4657C56.8036 70.6413 56.4808 70.7287 56.1118 70.7287C55.7872 70.7287 55.5044 70.6578 55.2624 70.5159C55.0214 70.3748 54.8378 70.174 54.7125 69.9136V72.1956H54.0215V66.5386H54.7125V67.2516C54.8378 66.9912 55.0214 66.7904 55.2624 66.6493C55.5044 66.5074 55.7872 66.4373 56.1118 66.4373C56.4755 66.4373 56.7966 66.5282 57.0751 66.7082Z" fill="#004494"/>
<path id="Vector_29" d="M59.8339 67.3105C59.6155 67.5364 59.4858 67.8565 59.4467 68.2685H61.8598C61.8485 67.8505 61.7432 67.5294 61.5439 67.3062C61.3455 67.0829 61.067 66.9713 60.7085 66.9713C60.3447 66.9721 60.0532 67.0846 59.8339 67.3105ZM62.4655 68.7098H59.4292C59.4519 69.1901 59.5824 69.5536 59.8217 69.7993C60.0602 70.046 60.3987 70.168 60.8364 70.168C61.3194 70.168 61.7632 70.0044 62.167 69.6765L62.3967 70.1766C62.2149 70.3462 61.9825 70.4812 61.6979 70.5799C61.4134 70.6785 61.1236 70.7279 60.8277 70.7279C60.1794 70.7279 59.6694 70.5392 59.297 70.1602C58.9245 69.7812 58.7383 69.2584 58.7383 68.5912C58.7383 68.1663 58.821 67.7925 58.9854 67.4671C59.1508 67.1417 59.3823 66.889 59.6807 66.7082C59.9792 66.5273 60.3195 66.4373 60.6998 66.4373C61.2515 66.4373 61.6831 66.6165 61.9964 66.9756C62.3088 67.3347 62.4655 67.828 62.4655 68.4554V68.7098Z" fill="#004494"/>
<path id="Vector_30" d="M65.736 69.8426C65.9553 69.6133 66.065 69.3182 66.065 68.9565V68.7107H65.9109C65.4106 68.7107 65.0294 68.7314 64.7683 68.7738C64.5064 68.8162 64.321 68.8872 64.2096 68.9859C64.0991 69.0854 64.0434 69.2308 64.0434 69.4229C64.0434 69.6435 64.1244 69.8253 64.2862 69.9698C64.449 70.1135 64.6517 70.1862 64.8963 70.1862C65.2374 70.1862 65.5176 70.0719 65.736 69.8426ZM66.3504 66.8406C66.6089 67.1089 66.7385 67.5173 66.7385 68.066V70.669H66.065V69.9655C65.9571 70.2087 65.7917 70.3965 65.5698 70.5297C65.3488 70.6621 65.0921 70.7287 64.8023 70.7287C64.5351 70.7287 64.2888 70.6751 64.0643 70.5678C63.8398 70.4605 63.6623 70.3099 63.5317 70.1178C63.4003 69.9265 63.3359 69.7137 63.3359 69.4817C63.3359 69.1711 63.4151 68.9296 63.5744 68.7565C63.7336 68.5843 63.9947 68.4606 64.3593 68.3844C64.7231 68.3074 65.2287 68.2693 65.877 68.2693H66.065V67.9898C66.065 67.6445 65.9936 67.3944 65.8509 67.2387C65.7091 67.0838 65.4793 67.0059 65.1608 67.0059C64.6831 67.0059 64.2079 67.153 63.7362 67.4472L63.5056 66.9461C63.7223 66.7938 63.9825 66.671 64.2862 66.5775C64.5908 66.484 64.8849 66.4373 65.1686 66.4373C65.6977 66.4364 66.092 66.5723 66.3504 66.8406Z" fill="#004494"/>
<path id="Vector_31" d="M71.5819 68.0737V70.669H70.8909V68.1162C70.8909 67.7319 70.8161 67.4524 70.6646 67.2767C70.5141 67.1019 70.2739 67.0136 69.9441 67.0136C69.5638 67.0136 69.2592 67.1296 69.0321 67.3615C68.8041 67.5935 68.691 67.9076 68.691 68.3031V70.669H68V66.5394H68.6823V67.217C68.8189 66.9626 69.0086 66.7696 69.2531 66.6364C69.4977 66.504 69.777 66.4373 70.0894 66.4373C71.0841 66.4373 71.5819 66.9834 71.5819 68.0737Z" fill="#004494"/>
<path id="Vector_32" d="M75.7092 70.1264C75.3054 69.7197 75.1035 69.12 75.1035 68.329V64.6901H75.7945V68.3879C75.7945 68.9703 75.9381 69.4082 76.2252 69.7024C76.5124 69.9966 76.9345 70.1429 77.4914 70.1429C78.0484 70.1429 78.4696 69.9966 78.7541 69.7024C79.0378 69.4082 79.1797 68.9703 79.1797 68.3879V64.6901H79.8793V68.329C79.8793 69.1139 79.6766 69.7119 79.2693 70.1221C78.8629 70.5323 78.2703 70.7365 77.4914 70.7365C76.7065 70.7365 76.113 70.5332 75.7092 70.1264Z" fill="#004494"/>
<path id="Vector_33" d="M84.8006 68.0737V70.669H84.1096V68.1162C84.1096 67.7319 84.0348 67.4524 83.8834 67.2767C83.7328 67.1019 83.4927 67.0136 83.1628 67.0136C82.7825 67.0136 82.478 67.1296 82.2508 67.3615C82.0228 67.5935 81.9097 67.9076 81.9097 68.3031V70.669H81.2188V66.5394H81.901V67.217C82.0376 66.9626 82.2273 66.7696 82.4719 66.6364C82.7164 66.504 82.9958 66.4373 83.3082 66.4373C84.3028 66.4373 84.8006 66.9834 84.8006 68.0737Z" fill="#004494"/>
</g>
<path id="Vector_34" d="M86.0619 70.669H86.7529V66.5386H86.0619V70.669ZM85.9932 65.5209H86.8286V64.7498H85.9932V65.5209Z" fill="#004494"/>
<g id="Group_3">
<path id="Vector_35" d="M90.7056 69.7578C90.9241 69.4887 91.0337 69.0975 91.0337 68.5835C91.0337 68.0798 90.9232 67.6912 90.7013 67.4169C90.4794 67.1426 90.167 67.0059 89.7632 67.0059C89.3594 67.0059 89.047 67.1426 88.8251 67.4169C88.6032 67.6912 88.4926 68.0798 88.4926 68.5835C88.4926 69.0923 88.6014 69.4817 88.8207 69.7535C89.04 70.0252 89.3542 70.1602 89.7632 70.1602C90.1722 70.1602 90.4863 70.0252 90.7056 69.7578ZM88.7267 70.4657C88.4282 70.2909 88.1985 70.0399 88.0358 69.7154C87.8739 69.39 87.793 69.0127 87.793 68.5835C87.793 68.1534 87.8739 67.7761 88.0358 67.4507C88.1985 67.1253 88.4282 66.8752 88.7267 66.7004C89.0252 66.5256 89.3707 66.4373 89.7632 66.4373C90.1556 66.4373 90.502 66.5256 90.8031 66.7004C91.1051 66.8752 91.3366 67.1253 91.4984 67.4507C91.6603 67.7761 91.7412 68.1534 91.7412 68.5835C91.7412 69.0127 91.6603 69.39 91.4984 69.7154C91.3366 70.0399 91.1051 70.2909 90.8031 70.4657C90.502 70.6413 90.1556 70.7287 89.7632 70.7287C89.3707 70.7287 89.0252 70.6405 88.7267 70.4657Z" fill="#004494"/>
<path id="Vector_36" d="M96.3563 68.0737V70.669H95.6653V68.1162C95.6653 67.7319 95.5905 67.4524 95.4391 67.2767C95.2885 67.1019 95.0483 67.0136 94.7185 67.0136C94.3382 67.0136 94.0336 67.1296 93.8065 67.3615C93.5785 67.5935 93.4654 67.9076 93.4654 68.3031V70.669H92.7744V66.5394H93.4567V67.217C93.5933 66.9626 93.7839 66.7696 94.0275 66.6364C94.2721 66.504 94.5514 66.4373 94.8638 66.4373C95.8585 66.4373 96.3563 66.9834 96.3563 68.0737Z" fill="#004494"/>
</g>
<path id="Vector_37" d="M100.96 68.5575H103.604L102.282 65.4958L100.96 68.5575ZM104.517 70.669L103.851 69.1338H100.713L100.048 70.669H99.3311L101.975 64.6901H102.58L105.224 70.669H104.517Z" fill="#004494"/>
<g id="Group_4">
<path id="Vector_38" d="M108.705 69.5787C108.932 69.3164 109.046 68.953 109.046 68.4891C109.046 68.0313 108.934 67.6705 108.709 67.4074C108.485 67.1452 108.171 67.0128 107.767 67.0128C107.363 67.0128 107.046 67.1452 106.816 67.4074C106.586 67.6705 106.471 68.0313 106.471 68.4891C106.471 68.953 106.586 69.3164 106.816 69.5787C107.046 69.8417 107.363 69.9733 107.767 69.9733C108.165 69.9733 108.478 69.8426 108.705 69.5787ZM109.737 66.5394V70.3895C109.737 71.0057 109.578 71.4712 109.259 71.7845C108.941 72.0986 108.469 72.2553 107.843 72.2553C107.116 72.2553 106.505 72.0692 106.011 71.6954L106.241 71.1865C106.519 71.3674 106.781 71.4972 107.025 71.5768C107.269 71.6556 107.542 71.6954 107.843 71.6954C108.242 71.6954 108.543 71.5898 108.748 71.3769C108.953 71.1658 109.055 70.856 109.055 70.4492V69.7197C108.936 69.9854 108.752 70.1887 108.505 70.3298C108.258 70.4717 107.966 70.5418 107.63 70.5418C107.267 70.5418 106.944 70.457 106.663 70.2874C106.382 70.1178 106.162 69.8781 106.006 69.5674C105.85 69.2559 105.771 68.8967 105.771 68.49C105.771 68.0833 105.85 67.7241 106.006 67.4126C106.162 67.1019 106.382 66.8614 106.663 66.6917C106.944 66.5221 107.267 66.4373 107.63 66.4373C107.96 66.4373 108.247 66.5083 108.492 66.6493C108.736 66.7912 108.921 66.9912 109.046 67.2516V66.5394H109.737Z" fill="#004494"/>
<path id="Vector_39" d="M111.864 67.3105C111.646 67.5364 111.516 67.8565 111.477 68.2685H113.89C113.879 67.8505 113.773 67.5294 113.574 67.3062C113.376 67.0829 113.097 66.9713 112.739 66.9713C112.375 66.9721 112.083 67.0846 111.864 67.3105ZM114.496 68.7098H111.46C111.482 69.1901 111.613 69.5536 111.852 69.7993C112.09 70.046 112.429 70.168 112.867 70.168C113.35 70.168 113.793 70.0044 114.197 69.6765L114.427 70.1766C114.245 70.3462 114.013 70.4812 113.728 70.5799C113.444 70.6785 113.154 70.7279 112.858 70.7279C112.21 70.7279 111.7 70.5392 111.327 70.1602C110.955 69.7812 110.769 69.2584 110.769 68.5912C110.769 68.1663 110.851 67.7925 111.016 67.4671C111.181 67.1417 111.413 66.889 111.711 66.7082C112.01 66.5273 112.35 66.4373 112.73 66.4373C113.282 66.4373 113.713 66.6165 114.027 66.9756C114.339 67.3347 114.496 67.828 114.496 68.4554V68.7098Z" fill="#004494"/>
<path id="Vector_40" d="M119.092 68.0737V70.669H118.401V68.1162C118.401 67.7319 118.326 67.4524 118.175 67.2767C118.025 67.1019 117.784 67.0136 117.455 67.0136C117.074 67.0136 116.769 67.1296 116.542 67.3615C116.314 67.5935 116.201 67.9076 116.201 68.3031V70.669H115.51V66.5394H116.192V67.217C116.329 66.9626 116.518 66.7696 116.763 66.6364C117.007 66.504 117.287 66.4373 117.599 66.4373C118.595 66.4373 119.092 66.9834 119.092 68.0737Z" fill="#004494"/>
<path id="Vector_41" d="M121.045 70.4657C120.743 70.2909 120.511 70.0434 120.35 69.724C120.187 69.4047 120.106 69.03 120.106 68.5999C120.106 68.1707 120.19 67.7925 120.358 67.468C120.526 67.1426 120.762 66.8899 121.066 66.7082C121.37 66.5282 121.727 66.4373 122.136 66.4373C122.414 66.4373 122.688 66.4866 122.955 66.5853C123.223 66.6848 123.439 66.8163 123.603 66.9799L123.373 67.4887C122.98 67.172 122.582 67.0136 122.179 67.0136C121.753 67.0136 121.42 67.153 121.181 67.4299C120.942 67.7068 120.823 68.0971 120.823 68.5999C120.823 69.0975 120.942 69.4817 121.181 69.7535C121.42 70.0252 121.753 70.1602 122.179 70.1602C122.582 70.1602 122.98 70.0027 123.373 69.6851L123.603 70.1939C123.427 70.3584 123.205 70.4882 122.938 70.5842C122.67 70.6803 122.395 70.7287 122.111 70.7287C121.702 70.7279 121.347 70.6405 121.045 70.4657Z" fill="#004494"/>
</g>
<path id="Vector_42" d="M127.415 66.5472H128.106L125.65 72.1956H124.942L125.641 70.618L123.885 66.5472H124.618L126.008 69.9231L127.415 66.5472Z" fill="#004494"/>
<g id="Group_5">
<path id="Vector_43" d="M131.944 66.5394H133.121V67.082H131.944V70.669H131.253V67.082H130.442V66.5394H131.253V66.4036C131.253 65.8549 131.391 65.4395 131.667 65.1565C131.943 64.8744 132.367 64.716 132.942 64.6823L133.283 64.665L133.334 65.1998L132.942 65.2249C132.594 65.2474 132.341 65.3452 132.183 65.5174C132.024 65.6896 131.944 65.9536 131.944 66.311V66.5394Z" fill="#004494"/>
<path id="Vector_44" d="M136.443 69.7578C136.661 69.4887 136.771 69.0975 136.771 68.5835C136.771 68.0798 136.66 67.6912 136.439 67.4169C136.218 67.1426 135.904 67.0059 135.5 67.0059C135.097 67.0059 134.784 67.1426 134.562 67.4169C134.34 67.6912 134.23 68.0798 134.23 68.5835C134.23 69.0923 134.339 69.4817 134.558 69.7535C134.777 70.0252 135.091 70.1602 135.5 70.1602C135.909 70.1602 136.224 70.0252 136.443 69.7578ZM134.464 70.4657C134.166 70.2909 133.936 70.0399 133.773 69.7154C133.611 69.39 133.53 69.0127 133.53 68.5835C133.53 68.1534 133.611 67.7761 133.773 67.4507C133.936 67.1253 134.166 66.8752 134.464 66.7004C134.763 66.5256 135.108 66.4373 135.5 66.4373C135.893 66.4373 136.24 66.5256 136.54 66.7004C136.842 66.8752 137.074 67.1253 137.237 67.4507C137.398 67.7761 137.479 68.1534 137.479 68.5835C137.479 69.0127 137.398 69.39 137.237 69.7154C137.074 70.0399 136.842 70.2909 136.54 70.4657C136.24 70.6413 135.893 70.7287 135.5 70.7287C135.108 70.7287 134.763 70.6405 134.464 70.4657Z" fill="#004494"/>
<path id="Vector_45" d="M140.865 67.031L140.412 67.0734C139.986 67.1132 139.678 67.2456 139.487 67.4723C139.297 67.6982 139.202 67.9777 139.202 68.3117V70.669H138.511V66.5394H139.184V67.2603C139.418 66.7791 139.875 66.5109 140.558 66.4537L140.805 66.4373L140.865 67.031Z" fill="#004494"/>
<path id="Vector_46" d="M145.922 70.1515L145.887 70.6941C145.757 70.7166 145.615 70.7287 145.461 70.7287C144.96 70.7287 144.584 70.5981 144.331 70.3376C144.079 70.078 143.952 69.7162 143.952 69.2524V67.0811H143.142V66.5386H143.952V65.2837H144.643V66.5386H145.819V67.0811H144.643V69.2013C144.643 69.8513 144.944 70.1766 145.547 70.1766C145.671 70.1766 145.797 70.168 145.922 70.1515Z" fill="#004494"/>
<path id="Vector_47" d="M150.203 68.0737V70.669H149.512V68.1162C149.512 67.7319 149.437 67.4524 149.287 67.2767C149.136 67.1019 148.895 67.0136 148.566 67.0136C148.185 67.0136 147.88 67.1296 147.653 67.3615C147.425 67.5935 147.312 67.9076 147.312 68.3031V70.669H146.621V64.6901H147.312V67.2006C147.449 66.9513 147.638 66.7627 147.879 66.632C148.12 66.5022 148.398 66.4373 148.711 66.4373C149.706 66.4373 150.203 66.9834 150.203 68.0737Z" fill="#004494"/>
<path id="Vector_48" d="M152.313 67.3105C152.095 67.5364 151.966 67.8565 151.926 68.2685H154.339C154.328 67.8505 154.223 67.5294 154.024 67.3062C153.825 67.0829 153.547 66.9713 153.188 66.9713C152.824 66.9721 152.533 67.0846 152.313 67.3105ZM154.945 68.7098H151.909C151.932 69.1901 152.062 69.5536 152.301 69.7993C152.54 70.046 152.878 70.168 153.316 70.168C153.799 70.168 154.243 70.0044 154.646 69.6765L154.876 70.1766C154.694 70.3462 154.462 70.4812 154.177 70.5799C153.893 70.6785 153.603 70.7279 153.308 70.7279C152.66 70.7279 152.149 70.5392 151.776 70.1602C151.404 69.7812 151.218 69.2584 151.218 68.5912C151.218 68.1663 151.3 67.7925 151.466 67.4671C151.63 67.1417 151.863 66.889 152.16 66.7082C152.459 66.5273 152.799 66.4373 153.179 66.4373C153.731 66.4373 154.164 66.6165 154.476 66.9756C154.788 67.3347 154.945 67.828 154.945 68.4554V68.7098Z" fill="#004494"/>
<path id="Vector_49" d="M157.921 69.9819L158.194 69.448C158.49 69.6972 158.792 69.8746 159.103 69.9819C159.412 70.0892 159.772 70.1429 160.181 70.1429C160.664 70.1429 161.036 70.0503 161.298 69.8634C161.56 69.6764 161.691 69.4142 161.691 69.0741C161.691 68.8768 161.628 68.715 161.503 68.5912C161.377 68.4666 161.213 68.3671 161.008 68.2944C160.804 68.2209 160.528 68.1447 160.181 68.0651C159.714 67.9578 159.332 67.8444 159.034 67.7259C158.735 67.6073 158.494 67.4377 158.309 67.217C158.125 66.9972 158.031 66.7082 158.031 66.3516C158.031 66.0133 158.121 65.7121 158.3 65.449C158.48 65.186 158.735 64.9826 159.068 64.8381C159.4 64.6944 159.786 64.6226 160.224 64.6226C160.639 64.6226 161.027 64.6875 161.388 64.8173C161.748 64.9471 162.054 65.134 162.304 65.3772L162.04 65.9112C161.755 65.668 161.467 65.4914 161.175 65.3815C160.881 65.2708 160.565 65.2154 160.224 65.2154C159.757 65.2154 159.392 65.3132 159.128 65.5088C158.863 65.7035 158.731 65.9761 158.731 66.3265C158.731 66.6268 158.848 66.8527 159.081 67.005C159.314 67.1582 159.667 67.288 160.138 67.3953C160.656 67.5199 161.062 67.6341 161.357 67.7388C161.653 67.8436 161.9 68.0002 162.095 68.2096C162.291 68.419 162.39 68.6986 162.39 69.049C162.39 69.3883 162.301 69.6851 162.121 69.9395C161.941 70.1939 161.685 70.3904 161.35 70.5288C161.014 70.6673 160.622 70.7365 160.172 70.7365C159.234 70.7365 158.484 70.4856 157.921 69.9819Z" fill="#004494"/>
<path id="Vector_50" d="M166.312 69.7526C166.534 69.4817 166.644 69.0966 166.644 68.599C166.644 68.1023 166.534 67.7129 166.312 67.4334C166.091 67.1538 165.777 67.0136 165.374 67.0136C164.971 67.0136 164.659 67.1495 164.441 67.4212C164.222 67.6921 164.112 68.0798 164.112 68.5826C164.112 69.0854 164.222 69.4739 164.441 69.7491C164.659 70.0226 164.971 70.1602 165.374 70.1602C165.777 70.1602 166.091 70.0243 166.312 69.7526ZM166.475 66.7082C166.753 66.889 166.969 67.1426 167.122 67.4671C167.276 67.7925 167.353 68.1698 167.353 68.599C167.353 69.0291 167.276 69.4038 167.122 69.7232C166.969 70.0425 166.754 70.29 166.479 70.4657C166.203 70.6413 165.88 70.7287 165.511 70.7287C165.187 70.7287 164.904 70.6578 164.662 70.5159C164.421 70.3748 164.237 70.174 164.112 69.9136V72.1956H163.421V66.5386H164.112V67.2516C164.237 66.9912 164.421 66.7904 164.662 66.6493C164.904 66.5074 165.187 66.4373 165.511 66.4373C165.874 66.4373 166.196 66.5282 166.475 66.7082Z" fill="#004494"/>
<path id="Vector_51" d="M170.641 69.8426C170.86 69.6133 170.969 69.3182 170.969 68.9565V68.7107H170.816C170.316 68.7107 169.934 68.7314 169.673 68.7738C169.412 68.8162 169.225 68.8872 169.114 68.9859C169.003 69.0854 168.948 69.2308 168.948 69.4229C168.948 69.6435 169.029 69.8253 169.191 69.9698C169.353 70.1135 169.556 70.1862 169.801 70.1862C170.142 70.1862 170.422 70.0719 170.641 69.8426ZM171.255 66.8406C171.513 67.1089 171.643 67.5173 171.643 68.066V70.669H170.969V69.9655C170.86 70.2087 170.696 70.3965 170.474 70.5297C170.253 70.6621 169.996 70.7287 169.707 70.7287C169.439 70.7287 169.193 70.6751 168.969 70.5678C168.744 70.4605 168.567 70.3099 168.436 70.1178C168.306 69.9265 168.24 69.7137 168.24 69.4817C168.24 69.1711 168.319 68.9296 168.479 68.7565C168.638 68.5843 168.9 68.4606 169.264 68.3844C169.627 68.3074 170.133 68.2693 170.781 68.2693H170.969V67.9898C170.969 67.6445 170.898 67.3944 170.755 67.2387C170.613 67.0838 170.384 67.0059 170.065 67.0059C169.587 67.0059 169.112 67.153 168.641 67.4472L168.411 66.9461C168.627 66.7938 168.887 66.671 169.191 66.5775C169.495 66.484 169.789 66.4373 170.073 66.4373C170.602 66.4364 170.996 66.5723 171.255 66.8406Z" fill="#004494"/>
<path id="Vector_52" d="M173.595 70.4657C173.293 70.2909 173.063 70.0434 172.901 69.724C172.738 69.4047 172.657 69.03 172.657 68.5999C172.657 68.1707 172.741 67.7925 172.909 67.468C173.077 67.1426 173.313 66.8899 173.617 66.7082C173.921 66.5282 174.278 66.4373 174.687 66.4373C174.965 66.4373 175.238 66.4866 175.505 66.5853C175.774 66.6848 175.989 66.8163 176.154 66.9799L175.924 67.4887C175.531 67.172 175.133 67.0136 174.73 67.0136C174.304 67.0136 173.97 67.153 173.732 67.4299C173.493 67.7068 173.373 68.0971 173.373 68.5999C173.373 69.0975 173.493 69.4817 173.732 69.7535C173.97 70.0252 174.304 70.1602 174.73 70.1602C175.133 70.1602 175.531 70.0027 175.924 69.6851L176.154 70.1939C175.978 70.3584 175.756 70.4882 175.489 70.5842C175.221 70.6803 174.946 70.7287 174.661 70.7287C174.252 70.7279 173.897 70.6405 173.595 70.4657Z" fill="#004494"/>
<path id="Vector_53" d="M177.838 67.3105C177.619 67.5364 177.491 67.8565 177.451 68.2685H179.864C179.852 67.8505 179.747 67.5294 179.549 67.3062C179.349 67.0829 179.071 66.9713 178.712 66.9713C178.349 66.9721 178.057 67.0846 177.838 67.3105ZM180.469 68.7098H177.433C177.457 69.1901 177.586 69.5536 177.826 69.7993C178.064 70.046 178.403 70.168 178.84 70.168C179.323 70.168 179.767 70.0044 180.171 69.6765L180.401 70.1766C180.219 70.3462 179.986 70.4812 179.702 70.5799C179.417 70.6785 179.127 70.7279 178.832 70.7279C178.184 70.7279 177.673 70.5392 177.301 70.1602C176.928 69.7812 176.742 69.2584 176.742 68.5912C176.742 68.1663 176.825 67.7925 176.99 67.4671C177.155 67.1417 177.387 66.889 177.685 66.7082C177.983 66.5273 178.323 66.4373 178.704 66.4373C179.255 66.4373 179.688 66.6165 180 66.9756C180.313 67.3347 180.469 67.828 180.469 68.4554V68.7098Z" fill="#004494"/>
<path id="Vector_54" d="M186.098 67.6411C187.014 67.6411 187.472 67.243 187.472 66.446C187.472 65.6602 187.014 65.2664 186.098 65.2664H184.487V67.6411H186.098ZM183.786 64.6892H186.165C186.797 64.6892 187.287 64.8415 187.637 65.1479C187.987 65.4525 188.162 65.8852 188.162 66.4451C188.162 67.005 187.985 67.4403 187.633 67.751C187.28 68.0616 186.791 68.2174 186.165 68.2174H184.486V70.6682H183.786V64.6892Z" fill="#004494"/>
<path id="Vector_55" d="M191.454 67.031L191.001 67.0734C190.576 67.1132 190.267 67.2456 190.076 67.4723C189.886 67.6982 189.791 67.9777 189.791 68.3117V70.669H189.1V66.5394H189.774V67.2603C190.006 66.7791 190.464 66.5109 191.146 66.4537L191.394 66.4373L191.454 67.031Z" fill="#004494"/>
<path id="Vector_56" d="M194.691 69.7578C194.909 69.4887 195.019 69.0975 195.019 68.5835C195.019 68.0798 194.908 67.6912 194.687 67.4169C194.465 67.1426 194.151 67.0059 193.748 67.0059C193.345 67.0059 193.032 67.1426 192.81 67.4169C192.588 67.6912 192.478 68.0798 192.478 68.5835C192.478 69.0923 192.587 69.4817 192.806 69.7535C193.025 70.0252 193.339 70.1602 193.748 70.1602C194.157 70.1602 194.472 70.0252 194.691 69.7578ZM192.711 70.4657C192.413 70.2909 192.182 70.0399 192.02 69.7154C191.858 69.39 191.777 69.0127 191.777 68.5835C191.777 68.1534 191.858 67.7761 192.02 67.4507C192.182 67.1253 192.413 66.8752 192.711 66.7004C193.01 66.5256 193.355 66.4373 193.748 66.4373C194.139 66.4373 194.486 66.5256 194.787 66.7004C195.089 66.8752 195.321 67.1253 195.483 67.4507C195.645 67.7761 195.726 68.1534 195.726 68.5835C195.726 69.0127 195.645 69.39 195.483 69.7154C195.321 70.0399 195.089 70.2909 194.787 70.4657C194.486 70.6413 194.139 70.7287 193.748 70.7287C193.355 70.7279 193.01 70.6405 192.711 70.4657Z" fill="#004494"/>
<path id="Vector_57" d="M199.444 69.5787C199.671 69.3164 199.785 68.953 199.785 68.4891C199.785 68.0313 199.673 67.6705 199.449 67.4074C199.224 67.1452 198.91 67.0128 198.506 67.0128C198.102 67.0128 197.786 67.1452 197.556 67.4074C197.325 67.6705 197.209 68.0313 197.209 68.4891C197.209 68.953 197.326 69.3164 197.556 69.5787C197.786 69.8417 198.102 69.9733 198.506 69.9733C198.903 69.9733 199.217 69.8426 199.444 69.5787ZM200.476 66.5394V70.3895C200.476 71.0057 200.316 71.4712 199.998 71.7845C199.68 72.0986 199.208 72.2553 198.582 72.2553C197.853 72.2553 197.243 72.0692 196.749 71.6954L196.98 71.1865C197.258 71.3674 197.52 71.4972 197.764 71.5768C198.007 71.6556 198.282 71.6954 198.582 71.6954C198.979 71.6954 199.282 71.5898 199.486 71.3769C199.69 71.1658 199.794 70.856 199.794 70.4492V69.7197C199.674 69.9854 199.49 70.1887 199.244 70.3298C198.996 70.4717 198.705 70.5418 198.369 70.5418C198.005 70.5418 197.682 70.457 197.402 70.2874C197.121 70.1178 196.901 69.8781 196.745 69.5674C196.589 69.2559 196.51 68.8967 196.51 68.49C196.51 68.0833 196.588 67.7241 196.745 67.4126C196.901 67.1019 197.121 66.8614 197.402 66.6917C197.682 66.5221 198.005 66.4373 198.369 66.4373C198.699 66.4373 198.986 66.5083 199.23 66.6493C199.474 66.7912 199.659 66.9912 199.784 67.2516V66.5394H200.476Z" fill="#004494"/>
<path id="Vector_58" d="M204.109 67.031L203.657 67.0734C203.23 67.1132 202.922 67.2456 202.732 67.4723C202.541 67.6982 202.446 67.9777 202.446 68.3117V70.669H201.755V66.5394H202.429V67.2603C202.662 66.7791 203.119 66.5109 203.802 66.4537L204.05 66.4373L204.109 67.031Z" fill="#004494"/>
<path id="Vector_59" d="M206.988 69.8426C207.207 69.6133 207.317 69.3182 207.317 68.9565V68.7107H207.163C206.663 68.7107 206.28 68.7314 206.02 68.7738C205.759 68.8162 205.572 68.8872 205.461 68.9859C205.35 69.0854 205.295 69.2308 205.295 69.4229C205.295 69.6435 205.377 69.8253 205.538 69.9698C205.701 70.1135 205.903 70.1862 206.147 70.1862C206.488 70.1862 206.768 70.0719 206.988 69.8426ZM207.601 66.8406C207.861 67.1089 207.989 67.5173 207.989 68.066V70.669H207.317V69.9655C207.208 70.2087 207.043 70.3965 206.822 70.5297C206.601 70.6621 206.345 70.7287 206.054 70.7287C205.786 70.7287 205.541 70.6751 205.316 70.5678C205.092 70.4605 204.914 70.3099 204.783 70.1178C204.653 69.9265 204.586 69.7137 204.586 69.4817C204.586 69.1711 204.666 68.9296 204.825 68.7565C204.984 68.5843 205.246 68.4606 205.609 68.3844C205.974 68.3074 206.479 68.2693 207.128 68.2693H207.316V67.9898C207.316 67.6445 207.244 67.3944 207.103 67.2387C206.961 67.0838 206.729 67.0059 206.412 67.0059C205.934 67.0059 205.458 67.153 204.986 67.4472L204.757 66.9461C204.972 66.7938 205.233 66.671 205.536 66.5775C205.84 66.484 206.135 66.4373 206.42 66.4373C206.949 66.4364 207.343 66.5723 207.601 66.8406Z" fill="#004494"/>
<path id="Vector_60" d="M215.255 68.0737V70.669H214.564V68.1084C214.564 67.7293 214.497 67.4524 214.365 67.2767C214.231 67.1019 214.016 67.0136 213.721 67.0136C213.373 67.0136 213.1 67.1296 212.902 67.3615C212.703 67.5935 212.603 67.9102 212.603 68.3117V70.669H211.912V68.1084C211.912 67.7233 211.844 67.4446 211.708 67.2724C211.572 67.1002 211.356 67.0136 211.06 67.0136C210.713 67.0136 210.44 67.1296 210.241 67.3615C210.043 67.5935 209.943 67.9102 209.943 68.3117V70.669H209.252V66.5394H209.935V67.1919C210.06 66.9496 210.234 66.7627 210.455 66.632C210.677 66.5022 210.932 66.4373 211.223 66.4373C211.865 66.4373 212.289 66.7082 212.494 67.2516C212.613 66.9972 212.795 66.7982 213.039 66.6537C213.284 66.5091 213.563 66.4373 213.875 66.4373C214.795 66.4373 215.255 66.9834 215.255 68.0737Z" fill="#004494"/>
<path id="Vector_61" d="M222.521 68.0737V70.669H221.83V68.1084C221.83 67.7293 221.763 67.4524 221.63 67.2767C221.497 67.1019 221.282 67.0136 220.987 67.0136C220.64 67.0136 220.367 67.1296 220.168 67.3615C219.97 67.5935 219.87 67.9102 219.87 68.3117V70.669H219.179V68.1084C219.179 67.7233 219.111 67.4446 218.974 67.2724C218.838 67.1002 218.623 67.0136 218.326 67.0136C217.98 67.0136 217.706 67.1296 217.508 67.3615C217.309 67.5935 217.209 67.9102 217.209 68.3117V70.669H216.518V66.5394H217.201V67.1919C217.326 66.9496 217.5 66.7627 217.722 66.632C217.943 66.5022 218.199 66.4373 218.49 66.4373C219.132 66.4373 219.556 66.7082 219.76 67.2516C219.879 66.9972 220.061 66.7982 220.306 66.6537C220.55 66.5091 220.829 66.4373 221.141 66.4373C222.061 66.4373 222.521 66.9834 222.521 68.0737Z" fill="#004494"/>
<path id="Vector_62" d="M224.632 67.3105C224.413 67.5364 224.284 67.8565 224.244 68.2685H226.657C226.645 67.8505 226.54 67.5294 226.342 67.3062C226.143 67.0829 225.864 66.9713 225.506 66.9713C225.142 66.9721 224.851 67.0846 224.632 67.3105ZM227.262 68.7098H224.227C224.249 69.1901 224.381 69.5536 224.618 69.7993C224.858 70.046 225.195 70.168 225.633 70.168C226.116 70.168 226.56 70.0044 226.965 69.6765L227.194 70.1766C227.012 70.3462 226.779 70.4812 226.495 70.5799C226.21 70.6785 225.921 70.7279 225.625 70.7279C224.977 70.7279 224.466 70.5392 224.094 70.1602C223.72 69.7812 223.534 69.2584 223.534 68.5912C223.534 68.1663 223.618 67.7925 223.782 67.4671C223.947 67.1417 224.179 66.889 224.477 66.7082C224.775 66.5273 225.115 66.4373 225.497 66.4373C226.048 66.4373 226.48 66.6165 226.792 66.9756C227.105 67.3347 227.261 67.828 227.261 68.4554V68.7098H227.262Z" fill="#004494"/>
</g>
</g>
<defs>
<clipPath id="clip0_5679_15620">
<rect width="228" height="90" fill="white"/>
</clipPath>
</defs>
</svg>
