<?xml version="1.0" encoding="UTF-8"?>
<svg id="Camada_2" data-name="Camada 2" xmlns="http://www.w3.org/2000/svg" viewBox="0 0 738.26 188">
  <defs>
    <style>
      .cls-1, .cls-2 {
        fill: #fffef9;
      }

      .cls-2 {
        font-family: NexaBold, 'Nexa Bold';
        font-size: 19.9px;
      }
    </style>
  </defs>
  <g id="Layer_1" data-name="Layer 1">
    <g>
      <g>
        <path class="cls-1" d="m115.09,84.79c-1.75-11.44-10.55-20.6-21.65-23.12-8.64-20.18-29.89-32.21-52.02-28.93-12.86,1.91-24.2,8.69-31.91,19.08C1.79,62.21-1.39,74.98.56,87.77c1.95,12.79,8.79,24.07,19.26,31.77l7.62-10.26c-7.71-5.67-12.74-13.97-14.17-23.39-1.44-9.42.9-18.82,6.58-26.47,5.68-7.66,14.03-12.64,23.49-14.04,17.29-2.56,33.82,7.55,39.35,24.04l1.36,4.07,4.3.3c7.07.48,12.99,5.9,14.05,12.88.61,4.01-.38,8.01-2.8,11.26-2.42,3.25-5.96,5.38-9.99,5.98-2.57.38-5.11.12-7.54-.78l-4.43,11.98c4.42,1.62,9.23,2.12,13.89,1.43,7.42-1.1,13.96-5.01,18.41-11.01,4.45-5.99,6.29-13.36,5.16-20.74Z"/>
        <path class="cls-1" d="m60.3,139.54c16.11,1.07,28.39,15.09,28.96,23.86-12.6-2.54-22.36-7.89-37.94-7.89s-26.87,3.83-39.47,6.37c.75-9.75,18-22.53,35.04-22.51.26,0,.09-41.38.09-41.38l-22.3-14.95,7.42-11.06,28.2,18.9v8.04l11.27-11.85,9.64,9.18-20.92,21.99v21.31"/>
        <g>
          <path class="cls-1" d="m79.72,34.11c5.63-.27,10.44,4.09,10.71,9.74l6.81-.32c-.45-9.4-8.46-16.68-17.85-16.23l.33,6.82Z"/>
          <path class="cls-1" d="m79.03,20.49c13.14-.63,24.35,9.56,24.98,22.71l6.81-.33c-.81-16.91-15.21-30.01-32.12-29.2l.32,6.81Z"/>
          <path class="cls-1" d="m78.38,6.87c20.66-.98,38.27,15.02,39.26,35.69l6.81-.32C123.28,17.8,102.47-1.11,78.05.05l.32,6.81Z"/>
        </g>
      </g>
      <path class="cls-1" d="m194.24,89.55l15.48,53.17,16.19-53.17h19.35l-24.65,71.08h-20.35l-7.31-20.92-6.31-23.65-6.3,23.65-7.31,20.92h-20.35l-24.79-71.08h19.49l16.19,53.17,15.33-53.17h15.33Z"/>
      <path class="cls-1" d="m277.07,68.52c0,14-21.22,14-21.22,0s21.22-14,21.22,0Zm-19.6,20.19v72.96h17.98v-72.96h-17.98Z"/>
      <path class="cls-1" d="m335.05,108.86c-4.88-4.6-10.45-6.13-17-6.13-8.08,0-12.54,2.51-12.54,6.83s4.04,6.96,12.82,7.52c12.96.84,29.4,3.76,29.4,22.02,0,12.12-9.89,22.57-29.54,22.57-10.87,0-21.74-1.81-31.77-12.26l8.36-12.12c4.88,5.43,16.02,9.47,23.69,9.61,6.41.14,12.4-3.21,12.4-8.22,0-4.74-3.9-6.69-13.65-7.25-12.96-.97-28.42-5.71-28.42-21.32s16.44-21.46,28.98-21.46c10.73,0,18.81,2.09,26.75,9.06l-9.47,11.15Z"/>
      <path class="cls-1" d="m373.09,131.01c1.12,8.5,8.5,14.63,20.48,14.63,6.27,0,14.49-2.37,18.39-6.41l10.87,10.73c-7.24,7.53-19.09,11.15-29.54,11.15-23.69,0-37.76-14.63-37.76-36.64s14.21-35.95,36.5-35.95,37.34,14.21,34.69,42.49h-53.64Zm37.34-14.07c-1.12-8.92-8.08-13.38-17.83-13.38-9.2,0-16.72,4.46-19.23,13.38h37.06Z"/>
      <path class="cls-1" d="m498.76,150.52c-7.94,7.8-16.3,10.87-26.47,10.87-19.92,0-36.5-11.98-36.5-36.37s16.58-36.37,36.5-36.37c9.75,0,17.28,2.79,24.8,10.17l-10.73,11.29c-4.04-3.62-9.06-5.43-13.79-5.43-11.42,0-19.78,8.36-19.78,20.34,0,13.1,8.92,20.06,19.51,20.06,5.43,0,10.87-1.53,15.05-5.71l11.42,11.15Z"/>
      <path class="cls-1" d="m522.03,90.65l1.25,8.14c5.29-8.71,12.4-9.99,19.37-9.99s13.93,2.86,17.69,6.71l-7.66,15.13c-3.48-3-6.69-4.57-12.26-4.57-8.92,0-17.14,4.85-17.14,17.85v37.12h-17v-70.39h15.74Z"/>
      <path class="cls-1" d="m635.02,125.02c0,19.79-13.51,35.81-35.81,35.81s-35.67-16.02-35.67-35.81,13.65-35.81,35.53-35.81,35.95,16.16,35.95,35.81Zm-54.47,0c0,10.45,6.27,20.2,18.67,20.2s18.67-9.75,18.67-20.2-7.24-20.34-18.67-20.34c-12.26,0-18.67,10.03-18.67,20.34Z"/>
      <path class="cls-1" d="m646.73,188v-97.39h15.88l1.12,9.47c5.29-7.66,14.49-11.01,22.29-11.01,21.18,0,35.25,15.74,35.25,35.95s-12.68,35.95-34.69,35.95c-7.24,0-17.97-2.23-22.85-9.75v36.78h-17Zm57.54-62.98c0-10.73-7.25-19.51-19.51-19.51s-19.51,8.78-19.51,19.51,7.94,19.51,19.51,19.51,19.51-8.78,19.51-19.51Z"/>
      <text class="cls-2" transform="translate(719.85 103.16)"><tspan x="0" y="0">®</tspan></text>
    </g>
  </g>
</svg>